<mxfile host="app.diagrams.net" modified="2022-04-27T06:32:00.917Z" agent="5.0 (Macintosh; Intel Mac OS X 10_15_7) AppleWebKit/537.36 (KHTML, like Gecko) Chrome/100.0.4896.127 Safari/537.36" etag="a2ffHmkHhMmGdNbgsHuN" version="16.0.0" type="github">
  <diagram id="YTGX3DtG_oLVdC1y8OUs" name="Page-1">
    <mxGraphModel dx="1154" dy="771" grid="1" gridSize="10" guides="1" tooltips="1" connect="1" arrows="1" fold="1" page="1" pageScale="1" pageWidth="827" pageHeight="1169" math="0" shadow="0">
      <root>
        <mxCell id="0" />
        <mxCell id="1" parent="0" />
        <mxCell id="jxqL1hpO2ZYqdBOo3Qa3-18" style="edgeStyle=orthogonalEdgeStyle;rounded=0;orthogonalLoop=1;jettySize=auto;html=1;exitX=0.5;exitY=0;exitDx=0;exitDy=0;entryX=0.5;entryY=0;entryDx=0;entryDy=0;" edge="1" parent="1" source="jxqL1hpO2ZYqdBOo3Qa3-2" target="jxqL1hpO2ZYqdBOo3Qa3-17">
          <mxGeometry relative="1" as="geometry" />
        </mxCell>
        <mxCell id="jxqL1hpO2ZYqdBOo3Qa3-2" value="行人特征提取网络" style="shape=trapezoid;perimeter=trapezoidPerimeter;whiteSpace=wrap;html=1;fixedSize=1;direction=west;" vertex="1" parent="1">
          <mxGeometry x="280" y="80" width="120" height="60" as="geometry" />
        </mxCell>
        <mxCell id="jxqL1hpO2ZYqdBOo3Qa3-10" style="edgeStyle=orthogonalEdgeStyle;rounded=0;orthogonalLoop=1;jettySize=auto;html=1;exitX=0.5;exitY=0;exitDx=0;exitDy=0;entryX=0.5;entryY=0;entryDx=0;entryDy=0;" edge="1" parent="1" source="jxqL1hpO2ZYqdBOo3Qa3-4" target="jxqL1hpO2ZYqdBOo3Qa3-7">
          <mxGeometry relative="1" as="geometry" />
        </mxCell>
        <mxCell id="jxqL1hpO2ZYqdBOo3Qa3-4" value="Encoder" style="shape=trapezoid;perimeter=trapezoidPerimeter;whiteSpace=wrap;html=1;fixedSize=1;direction=west;" vertex="1" parent="1">
          <mxGeometry x="280" y="210" width="120" height="60" as="geometry" />
        </mxCell>
        <mxCell id="jxqL1hpO2ZYqdBOo3Qa3-21" style="edgeStyle=orthogonalEdgeStyle;rounded=0;orthogonalLoop=1;jettySize=auto;html=1;exitX=0.5;exitY=1;exitDx=0;exitDy=0;entryX=0.5;entryY=0;entryDx=0;entryDy=0;" edge="1" parent="1" source="jxqL1hpO2ZYqdBOo3Qa3-6" target="jxqL1hpO2ZYqdBOo3Qa3-20">
          <mxGeometry relative="1" as="geometry" />
        </mxCell>
        <mxCell id="jxqL1hpO2ZYqdBOo3Qa3-6" value="Decoder" style="shape=trapezoid;perimeter=trapezoidPerimeter;whiteSpace=wrap;html=1;fixedSize=1;" vertex="1" parent="1">
          <mxGeometry x="280" y="460" width="120" height="60" as="geometry" />
        </mxCell>
        <mxCell id="jxqL1hpO2ZYqdBOo3Qa3-11" style="edgeStyle=orthogonalEdgeStyle;rounded=0;orthogonalLoop=1;jettySize=auto;html=1;exitX=0.5;exitY=1;exitDx=0;exitDy=0;entryX=0.5;entryY=0;entryDx=0;entryDy=0;" edge="1" parent="1" source="jxqL1hpO2ZYqdBOo3Qa3-7" target="jxqL1hpO2ZYqdBOo3Qa3-8">
          <mxGeometry relative="1" as="geometry" />
        </mxCell>
        <mxCell id="jxqL1hpO2ZYqdBOo3Qa3-7" value="32/64/128维向量" style="rounded=0;whiteSpace=wrap;html=1;" vertex="1" parent="1">
          <mxGeometry x="280" y="300" width="120" height="30" as="geometry" />
        </mxCell>
        <mxCell id="jxqL1hpO2ZYqdBOo3Qa3-12" style="edgeStyle=orthogonalEdgeStyle;rounded=0;orthogonalLoop=1;jettySize=auto;html=1;exitX=0.5;exitY=1;exitDx=0;exitDy=0;entryX=0.5;entryY=0;entryDx=0;entryDy=0;" edge="1" parent="1" source="jxqL1hpO2ZYqdBOo3Qa3-8" target="jxqL1hpO2ZYqdBOo3Qa3-9">
          <mxGeometry relative="1" as="geometry" />
        </mxCell>
        <mxCell id="jxqL1hpO2ZYqdBOo3Qa3-23" style="edgeStyle=orthogonalEdgeStyle;rounded=0;orthogonalLoop=1;jettySize=auto;html=1;exitX=0;exitY=0.5;exitDx=0;exitDy=0;entryX=0.5;entryY=1;entryDx=0;entryDy=0;" edge="1" parent="1" source="jxqL1hpO2ZYqdBOo3Qa3-8" target="jxqL1hpO2ZYqdBOo3Qa3-16">
          <mxGeometry relative="1" as="geometry" />
        </mxCell>
        <mxCell id="jxqL1hpO2ZYqdBOo3Qa3-8" value="64/128/256特定码率报文" style="rounded=0;whiteSpace=wrap;html=1;" vertex="1" parent="1">
          <mxGeometry x="280" y="350" width="120" height="30" as="geometry" />
        </mxCell>
        <mxCell id="jxqL1hpO2ZYqdBOo3Qa3-13" style="edgeStyle=orthogonalEdgeStyle;rounded=0;orthogonalLoop=1;jettySize=auto;html=1;exitX=0.5;exitY=1;exitDx=0;exitDy=0;entryX=0.5;entryY=0;entryDx=0;entryDy=0;" edge="1" parent="1" source="jxqL1hpO2ZYqdBOo3Qa3-9" target="jxqL1hpO2ZYqdBOo3Qa3-6">
          <mxGeometry relative="1" as="geometry" />
        </mxCell>
        <mxCell id="jxqL1hpO2ZYqdBOo3Qa3-9" value="32/64/128维向量" style="rounded=0;whiteSpace=wrap;html=1;" vertex="1" parent="1">
          <mxGeometry x="280" y="400" width="120" height="30" as="geometry" />
        </mxCell>
        <mxCell id="jxqL1hpO2ZYqdBOo3Qa3-14" value="行人重识别网络" style="rounded=0;whiteSpace=wrap;html=1;" vertex="1" parent="1">
          <mxGeometry x="280" y="590" width="120" height="60" as="geometry" />
        </mxCell>
        <mxCell id="jxqL1hpO2ZYqdBOo3Qa3-26" style="edgeStyle=orthogonalEdgeStyle;rounded=0;orthogonalLoop=1;jettySize=auto;html=1;exitX=0.5;exitY=0;exitDx=0;exitDy=0;entryX=0.5;entryY=1;entryDx=0;entryDy=0;" edge="1" parent="1" source="jxqL1hpO2ZYqdBOo3Qa3-16" target="jxqL1hpO2ZYqdBOo3Qa3-25">
          <mxGeometry relative="1" as="geometry" />
        </mxCell>
        <mxCell id="jxqL1hpO2ZYqdBOo3Qa3-16" value="Decoder" style="shape=trapezoid;perimeter=trapezoidPerimeter;whiteSpace=wrap;html=1;fixedSize=1;" vertex="1" parent="1">
          <mxGeometry x="120" y="210" width="120" height="60" as="geometry" />
        </mxCell>
        <mxCell id="jxqL1hpO2ZYqdBOo3Qa3-19" style="edgeStyle=orthogonalEdgeStyle;rounded=0;orthogonalLoop=1;jettySize=auto;html=1;exitX=0.5;exitY=1;exitDx=0;exitDy=0;entryX=0.5;entryY=1;entryDx=0;entryDy=0;" edge="1" parent="1" source="jxqL1hpO2ZYqdBOo3Qa3-17" target="jxqL1hpO2ZYqdBOo3Qa3-4">
          <mxGeometry relative="1" as="geometry" />
        </mxCell>
        <mxCell id="jxqL1hpO2ZYqdBOo3Qa3-17" value="1024维向量" style="rounded=0;whiteSpace=wrap;html=1;" vertex="1" parent="1">
          <mxGeometry x="280" y="160" width="120" height="30" as="geometry" />
        </mxCell>
        <mxCell id="jxqL1hpO2ZYqdBOo3Qa3-22" style="edgeStyle=orthogonalEdgeStyle;rounded=0;orthogonalLoop=1;jettySize=auto;html=1;exitX=0.5;exitY=1;exitDx=0;exitDy=0;entryX=0.5;entryY=0;entryDx=0;entryDy=0;" edge="1" parent="1" source="jxqL1hpO2ZYqdBOo3Qa3-20" target="jxqL1hpO2ZYqdBOo3Qa3-14">
          <mxGeometry relative="1" as="geometry" />
        </mxCell>
        <mxCell id="jxqL1hpO2ZYqdBOo3Qa3-20" value="1024维向量" style="rounded=0;whiteSpace=wrap;html=1;" vertex="1" parent="1">
          <mxGeometry x="280" y="540" width="120" height="30" as="geometry" />
        </mxCell>
        <mxCell id="jxqL1hpO2ZYqdBOo3Qa3-25" value="1024维向量" style="rounded=0;whiteSpace=wrap;html=1;" vertex="1" parent="1">
          <mxGeometry x="120" y="160" width="120" height="30" as="geometry" />
        </mxCell>
      </root>
    </mxGraphModel>
  </diagram>
</mxfile>
